<svg width="982.0000000000001" height="976" xmlns="http://www.w3.org/2000/svg">

 <g>
  <title>background</title>
  <rect fill="none" id="canvas_background" height="655.333333" width="748.666667" y="-1" x="-1"/>
 </g>
 <g>
  <title>Layer 1</title>
  <path id="svg_2" d="m19.4,43.7c2.5,-16.9 15.6,-31.3 31.8,-36.2c6.8,-1.4 13.9,-0.3 20.8,-0.3c40,0.2 80,0.5 120,0.6c6.3,0.1 12.7,-0.1 19,0.4c21,0.1 41.9,0 62.9,0.3c9.5,1 18.8,2.9 28,5.4c43.3,9.8 82.4,34.3 113.6,65.6c1.1,1.8 3.4,1.1 5.2,0.9c17.6,-3.3 35.4,-5.3 53.3,-6.5c6.3,-0.6 12.7,-0.6 19,-0.4c28.9,-0.3 57.9,2.4 86.3,8c1.8,0.2 4.2,1 5.4,-0.8c29.1,-29.9 65.9,-52.8 106.4,-63.3c11.5,-2.7 23,-5.7 34.9,-6c29.3,0.1 58.7,0.3 88,0.4c43.3,0.8 86.7,0.8 130.1,1.1c9.3,0.8 17.3,6.8 23.9,13.1c7.8,8.6 12.4,20.3 11.9,32c0.3,12.3 -5.7,24 -14.4,32.5c-46.9,47.4 -95.5,93 -142.3,140.3c22.8,29 42.4,60.6 56.6,94.7c12.6,28.5 21.2,58.7 27,89.3c3.7,16.4 5.5,33.3 6.2,50.1c0.1,1.3 0.3,2.6 0.5,3.9c-10.4,1.2 -21,0 -31.5,0c-22.7,-0.1 -45.3,-0.3 -68,-0.5c-20,0 -40,-0.7 -60,-0.6c-44.6,0.7 -89.7,-11.7 -126.8,-36.9c-1.3,-0.7 -3,-2.7 -4.3,-0.9c-14.5,14.5 -29,29 -43.8,43.2c-5.1,5.3 -10.7,10.2 -15.5,15.7c19.7,20.4 39.7,40.6 59.5,61c7.3,-4.2 14.3,-9 22,-12.6c15.2,-7.6 31.1,-13.9 47.7,-17.6c22.8,-5.9 46.7,-7.2 70.2,-6.9c33.6,1 67.3,0.7 101,1.1c16.3,-0.2 32.5,0.9 48.8,0.4c-0.5,15.6 -2.4,31.1 -5.1,46.5c-2.8,12 -5.1,24.1 -8.4,36c-11.3,41.4 -29.1,81 -52.6,116.9c-8.1,12.6 -17.3,24.4 -26.6,36.2c13.8,13.2 27,27.1 40.5,40.6c33,33.3 65.7,67 98.7,100.3c8.1,6.9 14.1,16.4 15.9,27c3.4,17.5 -4.3,36.6 -19.3,46.4c-7,4.8 -15.3,7.7 -23.8,7.7c-56.4,-0.3 -112.7,-1.2 -169.1,-1.4c-10,-0.3 -20,0.4 -30,-0.7c-23.3,-1 -46.2,-6.5 -67.9,-14.9c-9.5,-3.2 -18.1,-8.3 -27,-12.8c-10.5,-6.4 -21,-12.8 -30.5,-20.6c-10.2,-7.4 -19.1,-16.4 -27.8,-25.6c-4.5,0.4 -8.9,1.7 -13.4,2.4c-48.9,7.7 -99,6.7 -147.6,-2.6c-2.2,-0.3 -4.4,-1.2 -6.7,-0.9c-19.9,21.4 -44.3,38.4 -70.6,50.9c-11.1,5.9 -23.1,9.5 -35,13.2c-11.2,3.4 -22.7,5.7 -34.4,6.9c-17.9,2.7 -36.1,1.3 -54.1,1.6c-48.3,-0.6 -96.7,-0.6 -145,-0.8c-11.1,-0.2 -22.9,1 -33,-4.5c-9.3,-4.5 -16.5,-12.6 -21.1,-21.8c-5.9,-12.5 -5.9,-27.7 0.3,-40.1c2.7,-5.9 7.1,-10.7 11.8,-15.1c26.4,-26.3 52.8,-52.6 79.3,-78.7c12.7,-12.6 25.2,-25.5 38.1,-37.9c7.5,-7.9 15.6,-15.3 23,-23.3c-10.9,-14.1 -20.9,-29 -30.2,-44.3c-7.5,-12.2 -13.8,-25.1 -20.2,-37.9c-3.9,-9.6 -8.2,-19.1 -12,-28.7c-6.1,-17.2 -11.7,-34.6 -15.7,-52.4c-5.5,-24.3 -10,-49 -10.1,-74c43.9,0.8 87.9,0.7 131.8,1c25.6,-0.1 51.5,0.1 76.6,5.4c15.2,3.7 30.5,7.5 44.6,14.3c12.6,5.1 24.4,12 35.9,19.3c20.6,-20 41.1,-40 61.5,-60.1c-19.7,-20 -39.9,-39.7 -59.6,-59.7c-1.2,-1.8 -3,0 -4.3,0.7c-38.5,24.8 -84.9,37.3 -130.7,35.2c-46,-0.2 -92,-0.6 -138,-0.7c-5.9,-0.3 -11.8,-0.6 -17.6,-0.2c0.4,-21.8 4,-43.4 8.7,-64.6c3.7,-17.8 8.6,-35.4 14.9,-52.5c3.8,-12.2 9.4,-23.7 14.5,-35.4c14,-29.6 31.7,-57.3 51.9,-83.2c1,-0.9 -0.3,-2 -0.9,-2.7c-19.2,-19.2 -38,-38.8 -57.2,-57.9c-18.7,-18.9 -37.7,-37.6 -56.5,-56.5c-7.2,-7.5 -14.5,-14.9 -21.8,-22.2c-5.7,-5.5 -11.1,-11.6 -14.4,-18.8c-3.3,-8 -4.9,-17 -3.2,-25.5z" stroke-width="0.09375" stroke="#1a1a1a" fill="#1a1a1a"/>
  <path id="svg_3" d="m53.5,35.5c4.5,-3.1 10.2,-3.4 15.5,-3.3c38.3,0.2 76.7,0.5 115,0.6c19,0.6 38,0.4 57,0.6c24.2,0 48.6,3.2 71.5,11.3c27.3,9 52.1,24.4 73.4,43.4c-13.6,3.4 -26.8,8.3 -39.9,13.2c-1.6,0.8 -3.4,0.7 -4.7,-0.6c-21.5,-15.5 -47.2,-24.3 -73.3,-28.1c-8.6,-1.3 -17.3,-1.2 -26,-1.8c-44,-0.1 -88,-0.4 -132,-0.7c20.2,19.7 39.8,40.2 59.6,60.3c37.8,37.9 75.2,76.1 112.8,114.2c17.2,17.8 35.1,34.9 52.5,52.5c7.2,7 14,14.3 21.2,21.2c-3.5,5.6 -8.5,10 -12.9,14.9c-4.4,4.3 -8.8,8.8 -14.1,11.9c-38.6,-38.8 -77.6,-77.2 -115.6,-116.5c-13.1,-13 -25.7,-26.4 -38.6,-39.5c-26.2,-26.5 -52.5,-52.9 -78.8,-79.2c-11.9,-12.8 -24.5,-24.8 -36.9,-37.1c-4.2,-4.4 -9.3,-8.4 -12,-14c-3.7,-7.9 -1.2,-18.6 6.3,-23.3z" stroke-width="0.09375" stroke="#ffffff" fill="#ffffff"/>
  <path id="svg_4" d="m699.1,43.1c14.9,-4.3 30.5,-5.7 45.9,-6.5c20.7,-0.3 41.3,0.2 62,0.2c41.3,0.8 82.7,0.6 124,1.1c5.2,0.3 10.9,0.6 15.1,4c6.3,4.4 8.6,12.9 6.6,20.1c-1.1,4.7 -4.6,8.4 -7.9,11.8c-12.5,11.9 -24.7,24 -36.8,36.2c-33.9,33.5 -68.6,66.2 -102.1,100c-3.5,-2.8 -6.2,-6.4 -9.4,-9.5c-5.7,-5.9 -11.8,-11.5 -17.5,-17.4c25.1,-24.6 50.5,-48.9 75.5,-73.6c11.4,-11.5 23.1,-22.8 34.6,-34.2c-23.7,0.1 -47.4,-0.7 -71.1,-0.6c-25.3,-0.1 -50.6,-0.7 -75.9,-0.2c-23.5,1.2 -46.8,7.1 -67.8,17.8c-12.4,6.8 -24.1,14.9 -34.4,24.6c-31.8,28.1 -51.5,69.6 -52.9,112.1c-0.7,6 -0.4,12 0.2,17.9c-0.2,8 1.2,15.7 2.6,23.5c2.7,11.3 5.6,22.6 10.5,33.2c2,4.5 4,9 6.3,13.4c-6.8,6.7 -13.8,13.3 -20.4,20.2c-2.2,2.4 -4.6,4.7 -7.1,6.8c-7.5,-12.8 -14.5,-26 -18.9,-40.1c-13.9,-40.4 -14.8,-85.2 -2.3,-126.1c3,-9.2 6,-18.6 10.7,-27.2c8.9,-18.2 20.6,-34.9 33.9,-50.1c26.2,-27.5 59.7,-48.2 96.6,-57.4z" stroke-width="0.09375" stroke="#ffffff" fill="#ffffff"/>
  <path id="svg_5" d="m174.6,96.9c5.5,-0.2 10.9,-0.1 16.4,0.2c15.7,0.1 31.3,0.1 47,0.2c10.9,0 21.8,0.4 32.6,2.3c15.2,2.7 29.8,8.4 43.5,15.5c-20.3,10.4 -40.4,21.6 -58.9,35c-5.9,3.8 -11.1,8.4 -17,12.1c-18.2,-18.6 -36.6,-37 -54.7,-55.7c-3,-3.2 -6.3,-6.1 -8.9,-9.6z" stroke-width="0.09375" stroke="#ffffff" fill="#ffffff"/>
  <path id="svg_6" d="m360.4,124.4c39.4,-14 80.7,-23.1 122.6,-24.3c9.3,-0.9 18.7,-0.5 28,0c17.8,0.4 35.6,2.4 53.1,5.5c-7.3,11.3 -14.6,22.7 -20.2,35c-40.4,-5.4 -81.8,-3.9 -121.6,5c-13.5,3.1 -27.1,6.1 -40.1,10.8c-28.2,9.8 -55.5,22.7 -80.2,39.5c-6.2,3.7 -11.7,8.6 -17.9,12.4c-8.7,-9.1 -18,-17.7 -26.3,-27.1c30.8,-24.3 65.8,-43.1 102.6,-56.8z" stroke-width="0.09375" stroke="#ffffff" fill="#ffffff"/>
  <path id="svg_7" d="m687,116c16.3,-7.7 33.8,-13.8 52,-14.7c15.6,-1.3 31.3,-0.5 47,-0.6c12.7,-0.1 25.4,0.6 38.1,0.5c-21.3,21.4 -42.9,42.4 -64.6,63.3c-1,0.6 -1.8,0.5 -2.6,-0.3c-14.9,-11.8 -30.3,-23 -46.9,-32.2c-8.3,-5 -16.8,-9.9 -25.5,-14.1c0.7,-0.8 1.5,-1.4 2.5,-1.9z" stroke-width="0.09375" stroke="#ffffff" fill="#ffffff"/>
  <path id="svg_8" d="m633.9,164.3c7.6,-10.2 15.2,-20.8 25.1,-28.8c2.3,-0.2 4.3,1.4 6.4,2.2c20.5,10.5 41,21.5 59.4,35.5c13.1,9.4 25.4,19.8 37.2,30.7c7.3,6.1 13.4,13.4 20.1,20c13.5,15 25.8,31 37.5,47.3c14.3,21 26.7,43.2 36.4,66.7c14.8,33.1 22.4,68.8 29,104.3c-14.7,0.3 -29.3,0.1 -44,-0.4c-26.3,0.1 -52.7,-0.4 -79,-0.5c-8.5,-0.1 -17.1,0.3 -25.6,-0.6c-17,-1.4 -34,-4 -49.9,-10.2c-15.3,-5 -30,-11.9 -43.2,-21.1c9.4,-8.9 18,-18.5 27.5,-27.3c16.8,9.8 35.6,16.6 54.9,19.4c12.3,2.1 24.9,1.8 37.3,1.9c25,0.1 50,0.3 74.9,0.5c-1.5,-9.5 -4.8,-18.6 -7.8,-27.7c-3.1,-10.3 -7.5,-20.2 -11.9,-30.1c-15.8,-36.7 -39.1,-69.8 -66.3,-99c-6,-5.7 -11.3,-12.1 -17.7,-17.3c-15.9,-14.7 -33,-28 -51.2,-39.7c-11.9,-6.9 -23.7,-14.2 -36.4,-19.7c-4.2,-2.1 -8.8,-3.5 -12.7,-6.1z" stroke-width="0.09375" stroke="#ffffff" fill="#ffffff"/>
  <path id="svg_9" d="m495.6,164c4.5,-0.6 8.9,0.3 13.4,0.2c8,0.1 16.1,0.8 24.2,1.6c-1.8,7.5 -4,14.9 -5.8,22.5c-4.4,22.3 -6.3,45.3 -4.2,68c3,38 15.5,75.2 36.8,106.9c-20,20.4 -40.6,40.4 -60.9,60.6c-20.4,-20.4 -40.9,-40.8 -60.9,-61.5c8.2,-12 15.6,-24.6 21,-38.2c6.4,-14 10.5,-29.1 13.9,-44.2c6.4,-33.9 5.5,-69.4 -3.1,-102.9c-1,-3.8 -2.4,-7.7 -3.1,-11.6c9.5,-1.3 19.1,-1 28.7,-1.4z" stroke-width="0.09375" stroke="#ffffff" fill="#ffffff"/>
  <path id="svg_10" d="m402.2,177.8c12.2,-3.4 24.6,-6.3 37.1,-8.6c12.3,35 14.2,73.4 6.4,109.6c-8.7,38.5 -29.2,74 -57.3,101.6c-15.4,14.7 -33.1,27.1 -52.3,36.5c-9.2,5.1 -19.3,8.4 -29.3,11.7c-17,5.9 -35,7.9 -52.8,8.8c-25.7,0 -51.3,-0.2 -77,-0.2c-21.6,-0.8 -43.3,-0.5 -64.9,-0.7c0.4,-6.2 2.3,-12.1 3.4,-18.2c2,-9 3.3,-18.1 5.7,-27.1c9.5,-38.9 25.5,-76.2 46.8,-110.2c7.6,-12.1 16.2,-23.6 25,-35c9,8.9 17.9,17.8 26.7,26.9c-9.9,12.4 -18.8,25.5 -26.7,39.2c-8.6,14.6 -15.3,30.3 -21.9,45.8c-5.3,13.2 -9.2,26.9 -13.1,40.6c8,0.8 16,-0.1 24,0.6c21,0.2 42,0.3 63,0.4c33.6,1 67.2,-9.7 94.7,-28.8c14.2,-9.4 26.5,-21.5 37.4,-34.7c7.6,-10.5 15.2,-21.1 20.2,-33.1c14.8,-30.9 18.2,-66.6 11.8,-100.1c-1.9,-8.5 -4.2,-16.8 -6.9,-25z" stroke-width="0.09375" stroke="#ffffff" fill="#ffffff"/>
  <path id="svg_11" d="m364.3,192.2c4,-1.9 8.1,-3.7 12.4,-5.2c6.2,18.6 9.9,38.4 8,58c-0.9,17.5 -6,34.6 -13.6,50.3c-4,-3.5 -7.5,-7.4 -11.2,-11.2c-19.1,-18.5 -38,-37.1 -56.3,-56.2c3.6,-3.5 8,-6.1 12.2,-9c15.1,-10.6 31.6,-19.2 48.5,-26.7z" stroke-width="0.09375" stroke="#ffffff" fill="#ffffff"/>
  <path id="svg_12" d="m621.7,189.1c2.9,0.2 5.5,1.7 8.1,2.9c22.7,9.9 43.9,23.1 63.6,38.1c-10.9,12.1 -23.1,23.1 -34.4,34.9c-10.8,10.7 -21.6,21.3 -32.3,32.1c-11.5,-23.8 -15.7,-51 -12.3,-77.1c1.2,-10.6 4.1,-20.8 7.3,-30.9z" stroke-width="0.09375" stroke="#ffffff" fill="#ffffff"/>
  <path id="svg_13" d="m712,250c0.8,-0.8 2.2,-2.6 3.3,-1.3c8.5,8.4 17.2,16.5 25.1,25.4c-0.4,2.2 -2.9,3.3 -4.3,5c-26.3,26 -52.5,52.2 -78.7,78.3c-37.3,37.7 -74.9,75.1 -112.6,112.4c-8.9,-9 -17.9,-17.8 -26.8,-26.8c51,-50.1 101.1,-100.9 151.9,-151.1c14,-14 28.2,-27.8 42.1,-41.9z" stroke-width="0.09375" stroke="#ffffff" fill="#ffffff"/>
  <path id="svg_14" d="m215.4,326.3c6.8,-12.1 14.8,-23.3 22.7,-34.5c3.8,2.8 6.8,6.6 10.2,9.9c16,16.3 32.2,32.5 48.3,48.7c3,3 5.9,6.2 9.2,8.9c-19.1,9.2 -40.5,14.2 -61.8,13.4c-16.6,-0.1 -33.3,-0.1 -49.9,-0.4c6.5,-15.7 12.8,-31.4 21.3,-46z" stroke-width="0.09375" stroke="#ffffff" fill="#ffffff"/>
  <path id="svg_15" d="m731.9,320.9c8.7,-8.4 17,-17.3 26,-25.4c10.2,13.6 19.4,28 27.4,43.1c6.2,12.4 11.4,25.3 16.7,38.1c-19.9,0.2 -39.8,-0.1 -59.7,-0.2c-8.9,-0.6 -17.6,-2.1 -26.1,-4.4c-8.8,-2.7 -17.8,-5.2 -25.8,-9.9c13.9,-13.7 27.5,-27.7 41.5,-41.3z" stroke-width="0.09375" stroke="#ffffff" fill="#ffffff"/>
  <path id="svg_16" d="m413.3,393.2c2.7,-3.1 5.7,-6.1 8.5,-9.2c21.5,21.9 43.5,43.3 64.9,65.3c14.6,15 29.9,29.4 44.4,44.6c23.4,23.8 46.9,47.7 70.3,71.5c0,0.3 0,0.8 0,1c-9.5,7.8 -18.7,16.1 -26.4,25.7c-27.5,-27.2 -54.4,-55 -81.6,-82.5c-21.9,-21.7 -43.5,-43.8 -65.5,-65.5c-10.9,-11.2 -22.3,-21.9 -33.2,-33.2c6.2,-5.9 13.1,-11.1 18.6,-17.7z" stroke-width="0.09375" stroke="#ffffff" fill="#ffffff"/>
  <path id="svg_17" d="m326,630c42.5,-40.9 84.6,-82 126.9,-123.1c8.6,9.3 18.1,17.5 26.5,26.9c-40.2,40 -81.5,78.9 -122,118.7c-25.5,24.4 -50.5,49.5 -75.8,74.2c-0.9,1.1 -2.7,1.7 -3.6,0.3c-8.5,-8.1 -16.7,-16.6 -24.6,-25.3c23.8,-24.3 48.5,-47.7 72.6,-71.7z" stroke-width="0.09375" stroke="#ffffff" fill="#ffffff"/>
  <path id="svg_18" d="m111.1,534.6c30,0.2 59.9,0.8 89.9,0.7c22.4,0.4 44.8,-0.6 67.1,1.9c29.8,3.7 58.8,13.8 84.3,29.7c-9,9.2 -18.4,18 -27.5,27.1c-8.4,-3.6 -16.6,-7.4 -25.1,-10.8c-16.4,-5.3 -33.5,-8.9 -50.8,-9.5c-30.5,-0.7 -61.1,0 -91.6,-1c4.1,16.9 9.4,33.4 16.2,49.3c17.8,44.4 45.2,84.7 79.5,117.9c5.4,6 11.7,11 17.8,16.2c11.7,10.2 24.5,19 37.5,27.4c17.1,10.1 34.2,20.3 52.7,27.4c-6.8,10.6 -15,20.4 -24.1,29.1c-1.6,1.7 -3.9,0.4 -5.6,-0.4c-21.2,-10.5 -41.9,-22.1 -61.2,-35.8c-14.2,-10.3 -27.6,-21.7 -40.6,-33.5c-6.5,-7.1 -13.5,-13.7 -20,-20.9c-11.2,-12.9 -21.8,-26.3 -31.6,-40.2c-22.9,-33.9 -41.2,-71.1 -52.6,-110.4c-6.6,-21 -9.7,-42.8 -14.3,-64.2z" stroke-width="0.09375" stroke="#ffffff" fill="#ffffff"/>
  <path id="svg_19" d="m710.6,542.8c15.3,-2.7 30.9,-3.6 46.4,-3.4c23.7,0.2 47.4,0 71,0.8c18.7,0 37.5,0.5 56.2,0.2c-6,35.5 -15.1,70.7 -30.1,103.5c-13.3,31.1 -31.8,59.6 -52.3,86.4c-4,-2.2 -6.6,-6.2 -9.9,-9.2c-5.5,-5.8 -11.6,-11.2 -16.8,-17.3c0.3,-2.7 2.7,-4.5 4.1,-6.7c7.6,-10.5 15.2,-21.1 21.7,-32.3c8.5,-13.9 15.2,-28.7 21.6,-43.6c3.9,-8.2 6.5,-16.9 9.7,-25.4c1.6,-6 4.3,-11.8 4.6,-18.1c-20.9,0.2 -41.9,-0.3 -62.8,-0.3c-21,-0.2 -42.3,-1.2 -62.9,4c-13.3,2.6 -26,7.9 -38.3,13.6c-21.7,11.4 -40.9,27.5 -55.9,46.8c-12.2,16.9 -22.2,35.6 -27.2,55.8c-4.1,14.8 -5.9,30.1 -5.5,45.4c-0.4,18.6 3.8,37 9.7,54.6c-11.9,3.9 -24,6.8 -36.3,9.1c-3.3,-7.8 -4.8,-16.3 -7,-24.4c-10.1,-49 -2,-101.8 24.1,-144.6c18.1,-30.9 44.9,-56.3 76.2,-73.6c18.7,-10 38.8,-17.5 59.7,-21.3z" stroke-width="0.09375" stroke="#ffffff" fill="#ffffff"/>
  <path id="svg_20" d="m498.1,553.1c0.3,0.2 0.9,0.4 1.2,0.5c12.3,12.5 24.8,24.6 36.9,37.2c7.6,7.3 14.6,15.2 22.3,22.4c-9.1,14.2 -17.5,29 -23.5,44.9c-17.5,44.8 -20,95.2 -7.6,141.7c0.9,3.5 2.1,7 2.8,10.5c-16.3,1.9 -32.8,1.2 -49.2,1.1c-6,-0.5 -12,-0.8 -17.9,-1.7c4.8,-15.5 8.7,-31.4 10,-47.7c2.8,-22.4 1.6,-45.3 -2.4,-67.5c-3.2,-14.9 -6.9,-29.8 -13.2,-43.8c-5.4,-13.5 -12.5,-26.3 -20.3,-38.5c20.4,-19.5 40.6,-39.4 60.9,-59.1z" stroke-width="0.09375" stroke="#ffffff" fill="#ffffff"/>
  <path id="svg_21" d="m193.2,599.6c17.2,0.3 34.3,-0.2 51.5,0.5c15.6,0.3 31.2,2.9 46,8.1c4.5,1.7 8.8,3.9 13.3,5.5c-2,2.8 -4.6,4.9 -7,7.3c-19.8,19.6 -39.6,39.1 -59.6,58.5c-0.8,1 -2.1,-0.4 -2.6,-1.2c-12.3,-17.6 -23.9,-35.9 -32.2,-55.7c-3.2,-7.6 -6.6,-15.2 -9.4,-23z" stroke-width="0.09375" stroke="#ffffff" fill="#ffffff"/>
  <path id="svg_22" d="m689.2,616.8c17.7,-8.7 37.2,-12.7 56.8,-13.2c18.2,-0.3 36.4,0.3 54.6,0.2c-2.2,6.3 -5.3,12.4 -7.9,18.5c-7.3,17 -16.6,33.1 -27.2,48.2c-3.4,4.5 -6.1,9.6 -10.3,13.5c-21.8,-22.6 -44.2,-44.7 -66,-67.2z" stroke-width="0.09375" stroke="#ffffff" fill="#ffffff"/>
  <path id="svg_23" d="m654.8,639.8c3.6,-3.1 6.8,-6.7 11,-9.1c40.7,41.5 81.3,83 122.2,124.3c52.6,52.5 104,106 156.5,158.5c7.3,7.7 5.9,21.2 -2.4,27.6c-3.9,3.2 -9.1,4.3 -14.1,4.1c-25,-0.7 -50,-0.3 -75,-0.7c-14,-0.2 -28,-0.2 -42,-0.2c-18.7,0 -37.3,-0.8 -56,-0.7c-23.3,0.3 -47,-1.6 -69,-9.8c-28.5,-8.6 -54.1,-25.3 -76.2,-45.1c12.9,-3.7 25.7,-7.8 38.2,-12.8c1.6,-0.5 3.6,-1.5 5.2,-0.3c5.5,3.6 10.9,7.3 16.6,10.5c23.8,13.1 51,20 78.2,19.5c45.4,0.3 90.8,1 136.2,1c-12.8,-13.4 -26.1,-26.4 -39.2,-39.6c-27.1,-27.6 -54.1,-55.3 -81.3,-82.7c-17.2,-17.8 -34.7,-35.3 -52.2,-52.8c-24.2,-24.8 -48.5,-49.5 -72.6,-74.5c4.9,-6 9.7,-12.3 15.9,-17.2z" stroke-width="0.09375" stroke="#ffffff" fill="#ffffff"/>
  <path id="svg_24" d="m389.4,658.8c9,-9.4 18.6,-18.1 27.8,-27.3c8.3,12 14.1,25.5 19.2,39.1c10.9,31.2 14,65 8.9,97.6c-5.5,35.4 -20.5,69.3 -43.2,96.9c-18.9,24.2 -44.2,42.8 -71.7,56.2c-11.4,5.8 -23.7,9.4 -35.9,13.1c-17.7,4.8 -36.2,6.6 -54.5,6.2c-24,-0.1 -48,-0.1 -72,-0.2c-18,-0.4 -36,0.2 -54,-0.6c-18.3,0 -36.7,-0.2 -55,-0.2c-8.1,-0.1 -15.2,-6.4 -17.3,-14c-1.2,-5.7 -0.6,-12.1 3.1,-16.8c48.1,-46.6 95.2,-94.2 142.4,-141.7c1.4,-2.1 3.2,0.3 4.2,1.5c7.5,8.4 15.5,16.4 23.5,24.4c-36.4,36.1 -72.1,72.9 -108.8,108.7c22.3,-0.1 44.6,0.6 66.9,0.6c23.7,0.1 47.3,0.1 71,0.2c15.9,0.5 31.7,-2.1 46.9,-6.5c20.2,-5.8 38.7,-16.2 55.3,-28.8c22.3,-17.9 40.5,-41.3 51,-68c4.1,-8.8 6.2,-18.4 8.7,-27.8c6.4,-29.9 4.2,-61.5 -6.3,-90.2c-3.2,-7.6 -6.1,-15.3 -10.2,-22.4z" stroke-width="0.09375" stroke="#ffffff" fill="#ffffff"/>
  <path id="svg_25" d="m335.9,710.9c11.1,-10.8 21.9,-21.9 33.2,-32.4c13.7,28.6 17.2,62.1 9,92.8c-1.4,5.2 -3,10.4 -4.9,15.4c-16.6,-6 -32,-14.8 -47.2,-23.8c-9,-5.1 -17,-11.7 -25.6,-17.4c11.8,-11.5 23.4,-23.3 35.5,-34.6z" stroke-width="0.09375" stroke="#ffffff" fill="#ffffff"/>
  <path id="svg_26" d="m616.8,699.7c2.2,-6.5 4.2,-13.3 7.9,-19.1c21.9,22.6 44,45 66.1,67.4c-20.8,15.5 -43.4,28.6 -67.3,38.7c-1.5,0.8 -3.2,1 -4.9,1.2c-2.4,-8.2 -5.1,-16.5 -6.3,-25c-3.5,-21.1 -1.8,-42.9 4.5,-63.2z" stroke-width="0.09375" stroke="#ffffff" fill="#ffffff"/>
  <path id="svg_27" d="m693.5,778.5c5.5,-3.7 10.8,-7.7 16.4,-11.4c8.2,8.7 16.6,17.4 25.1,25.9c1.2,0.7 0.7,2 -0.4,2.6c-10.1,8 -20.8,15.2 -31.6,22.3c-8.7,4.9 -17,10.7 -26,15.1c-50.1,26.5 -106.3,41.5 -163,43.5c-15.4,0 -30.8,0.6 -46.1,-1c-12,-0.9 -24,-2.4 -35.9,-4.6c7.6,-11.4 15,-23 20.8,-35.5c21.2,3.6 42.8,3.3 64.2,2.9c39.3,-2.4 78.6,-10.6 114.9,-26.2c11.4,-4.5 22.5,-9.8 33.2,-15.8c9.4,-6.1 19.3,-11.2 28.4,-17.8z" stroke-width="0.09375" stroke="#ffffff" fill="#ffffff"/>
  <path id="svg_28" d="m199.9,845.9c11.6,-12 23.6,-23.5 35.1,-35.6c23.1,19 48.7,34.7 75,48.7c-17.6,10.2 -37.7,15.7 -58,17.1c-14.3,0.5 -28.6,-0.4 -43,-0.3c-12.8,-0.1 -25.5,0 -38.3,-0.3c9.4,-10.2 19.5,-19.7 29.2,-29.6z" stroke-width="0.09375" stroke="#ffffff" fill="#ffffff"/>
  <path id="svg_29" d="m724.6,835.7c10.1,-6.8 20.2,-13.9 29.7,-21.4c1,-0.3 1.9,0 2.5,0.8c20.8,21.8 42.3,42.9 63.2,64.6c-26,0 -52,-0.3 -78,-0.4c-21.7,-0.8 -42.9,-7.4 -61.9,-17.7c6.9,-4 14.3,-7.1 20.9,-11.5c7.8,-5 16.1,-9.1 23.6,-14.4z" stroke-width="0.09375" stroke="#ffffff" fill="#ffffff"/>
 </g>
</svg>